<?xml version="1.0" standalone="no"?>
<!DOCTYPE svg PUBLIC "-//W3C//DTD SVG 20010904//EN"
 "http://www.w3.org/TR/2001/REC-SVG-20010904/DTD/svg10.dtd">
<svg version="1.0" xmlns="http://www.w3.org/2000/svg"
 width="512.000000pt" height="512.000000pt" viewBox="0 0 512.000000 512.000000"
 preserveAspectRatio="xMidYMid meet">

<g transform="translate(0.000000,512.000000) scale(0.100000,-0.100000)"
fill="red" stroke="none">
<path d="M185 5026 c-37 -17 -80 -62 -94 -99 -8 -20 -11 -615 -11 -1944 l0
-1917 21 -43 c14 -29 35 -52 63 -68 l43 -25 960 0 961 0 12 -30 c7 -16 17 -27
23 -23 6 3 7 1 3 -5 -8 -14 47 -105 58 -95 4 5 7 3 6 -2 -5 -23 1 -36 13 -29
6 4 9 4 5 -1 -11 -12 11 -47 25 -39 7 4 9 4 5 -1 -11 -11 11 -47 24 -39 6 4 8
3 5 -2 -3 -6 10 -28 30 -49 19 -22 29 -31 22 -20 -13 18 -13 19 3 6 10 -7 16
-17 13 -21 -7 -11 155 -161 166 -154 5 3 8 1 7 -5 -4 -14 63 -62 76 -54 6 3 8
2 3 -2 -9 -11 43 -46 57 -38 6 3 8 3 4 -2 -11 -11 29 -38 44 -29 6 4 8 3 5 -3
-6 -10 50 -40 66 -35 4 1 7 -3 7 -9 0 -5 4 -7 10 -4 5 3 10 1 10 -5 0 -6 4 -8
10 -5 6 3 10 2 10 -3 0 -13 50 -33 62 -26 7 4 8 2 4 -4 -7 -11 7 -16 42 -15 6
1 12 -4 12 -9 0 -6 7 -7 16 -4 8 3 13 2 10 -3 -7 -11 41 -24 56 -15 7 5 8 2 3
-6 -6 -10 -3 -12 13 -8 12 4 22 2 22 -4 0 -6 9 -8 20 -5 11 3 20 1 20 -5 0 -6
9 -8 20 -5 11 3 20 1 20 -5 0 -6 11 -8 25 -6 14 3 25 1 25 -5 0 -5 15 -7 35
-4 24 4 33 2 29 -5 -5 -8 7 -9 40 -6 25 3 46 2 46 -3 0 -5 61 -9 135 -9 74 0
135 4 135 9 0 5 21 6 46 3 28 -3 45 -1 41 4 -3 6 9 8 30 6 21 -3 33 -1 30 5
-3 5 7 7 25 5 23 -4 29 -2 23 8 -5 9 -4 11 3 6 15 -9 83 4 77 14 -3 5 4 6 15
3 11 -3 20 0 20 6 0 5 7 8 15 5 8 -4 15 -1 15 5 0 6 7 8 15 5 8 -4 15 -2 15 4
0 5 6 10 13 9 32 -1 48 4 42 13 -3 5 0 7 8 4 8 -3 21 1 28 9 8 7 20 12 28 9 9
-3 11 0 6 8 -5 8 -4 11 3 6 14 -9 103 35 95 47 -3 6 -1 7 6 3 14 -9 203 113
195 126 -3 5 -2 7 3 6 15 -4 54 23 47 34 -4 7 -3 8 4 4 15 -9 195 171 186 186
-4 7 -3 8 4 4 11 -7 38 32 34 47 -1 5 2 6 7 2 12 -7 33 29 23 40 -4 5 -2 6 3
2 14 -7 108 140 99 155 -4 6 -3 8 3 5 12 -8 56 81 47 95 -5 7 -2 8 6 3 10 -6
12 -4 7 9 -4 10 -3 15 3 11 9 -6 14 10 13 42 -1 7 3 10 8 7 8 -5 13 12 12 44
-1 6 4 12 9 12 6 0 8 7 4 15 -3 8 -1 15 5 15 6 0 9 7 5 15 -3 8 0 15 5 15 6 0
9 9 6 20 -3 11 -2 18 3 15 10 -6 23 62 14 77 -4 6 -3 8 3 5 13 -8 27 72 17 98
-6 13 -4 16 5 10 10 -6 12 3 10 39 -2 25 -1 46 3 46 5 0 8 61 8 136 0 83 -4
133 -10 129 -5 -3 -7 14 -3 45 3 29 2 50 -4 50 -5 0 -8 13 -5 30 2 16 0 30 -5
30 -6 0 -8 11 -5 25 2 14 0 25 -6 25 -6 0 -8 9 -5 20 3 11 1 20 -5 20 -6 0 -8
9 -5 20 3 11 1 20 -5 20 -6 0 -8 10 -4 22 4 16 2 19 -8 13 -8 -5 -11 -4 -6 3
9 14 -4 63 -14 57 -5 -3 -6 5 -2 17 3 13 1 19 -5 15 -6 -4 -11 -1 -10 6 1 34
-4 48 -15 41 -6 -4 -8 -3 -5 3 9 15 -17 75 -28 66 -4 -5 -5 -2 -1 5 12 20
-113 229 -129 214 -5 -4 -5 -2 -2 4 8 14 -41 80 -56 76 -7 -2 -9 0 -5 4 10 9
-31 66 -43 59 -5 -4 -9 450 -9 1123 0 811 -3 1139 -11 1163 -15 44 -55 88 -96
105 -47 20 -4303 20 -4348 0z m1144 -361 c182 -43 311 -181 366 -390 38 -145
28 -369 -22 -508 -45 -126 -134 -237 -229 -285 -148 -76 -355 -79 -510 -8
-121 56 -230 205 -270 371 -24 97 -24 315 0 410 52 214 186 359 376 409 72 19
209 20 289 1z m2361 -270 l0 -235 260 0 260 0 0 -105 0 -105 -260 0 -260 0 0
-235 0 -235 -125 0 -125 0 0 235 0 235 -260 0 -260 0 0 105 0 105 260 0 260 0
0 235 0 235 125 0 125 0 0 -235z m-263 -1241 c-3 -3 -12 -4 -19 -1 -8 3 -5 6
6 6 11 1 17 -2 13 -5z m176 -1 c-7 -2 -19 -2 -25 0 -7 3 -2 5 12 5 14 0 19 -2
13 -5z m262 -150 c27 -10 136 -165 133 -188 -4 -27 -161 -145 -193 -145 -21 0
-25 -5 -25 -28 0 -16 -11 -50 -24 -77 l-25 -48 152 -191 c882 -1110 842 -1058
842 -1105 0 -38 -5 -47 -40 -77 -22 -18 -77 -58 -121 -89 -88 -60 -131 -69
-170 -37 -17 13 -459 687 -832 1267 l-51 80 -65 -3 -64 -4 30 -43 c20 -28 28
-49 24 -62 -7 -22 -185 -153 -208 -153 -21 0 -44 27 -167 199 -64 89 -111 164
-111 177 0 23 15 37 152 133 56 40 78 36 115 -21 l27 -40 12 40 c17 59 48 105
109 161 68 62 145 92 232 92 55 0 63 3 63 19 0 10 17 32 38 48 39 31 142 102
147 102 2 0 11 -3 20 -7z m-1505 -357 c0 -2 -8 -10 -17 -17 -16 -13 -17 -12
-4 4 13 16 21 21 21 13z m-850 -696 l0 -610 -160 0 -160 0 0 480 c0 264 -3
480 -7 480 -5 0 -66 -23 -136 -52 -93 -38 -130 -49 -136 -40 -9 15 -54 202
-50 206 2 2 83 35 179 73 l175 71 148 1 147 1 0 -610z m1439 156 c61 -85 111
-159 111 -165 0 -6 -25 -73 -55 -148 -47 -116 -53 -139 -41 -152 7 -9 201
-241 431 -515 l418 -499 -29 -54 c-36 -68 -103 -145 -159 -183 -51 -35 -179
-80 -228 -80 l-35 0 -348 570 -348 569 -156 -6 -156 -6 -101 139 c-55 76 -106
148 -113 160 -11 18 -5 41 51 185 54 141 85 197 109 199 3 0 52 -65 109 -145
57 -80 107 -148 112 -151 7 -4 49 23 127 81 2 2 -47 71 -108 155 l-111 152 23
17 c25 17 109 26 285 29 l102 2 110 -154z m-982 -403 c-3 -10 -5 -4 -5 12 0
17 2 24 5 18 2 -7 2 -21 0 -30z m0 -190 c-3 -10 -5 -4 -5 12 0 17 2 24 5 18 2
-7 2 -21 0 -30z m10 -105 c-3 -8 -6 -5 -6 6 -1 11 2 17 5 13 3 -3 4 -12 1 -19z
m498 -918 c10 -11 16 -20 13 -20 -3 0 -13 9 -23 20 -10 11 -16 20 -13 20 3 0
13 -9 23 -20z"/>
<path d="M1125 4448 c-43 -23 -86 -74 -104 -123 -48 -128 -53 -382 -11 -518
67 -215 274 -221 341 -9 46 145 35 453 -21 561 -42 84 -139 126 -205 89z"/>
<path d="M3474 660 c-58 -23 -70 -95 -25 -141 49 -48 114 -34 141 31 16 39 -1
85 -41 105 -31 17 -44 18 -75 5z"/>
</g>
</svg>
